<?xml version="1.0" encoding="UTF-8" standalone="no"?>
<!DOCTYPE svg PUBLIC "-//W3C//DTD SVG 1.1//EN" "http://www.w3.org/Graphics/SVG/1.1/DTD/svg11.dtd">
<svg width="100%" height="100%" viewBox="0 0 1761 1041" version="1.1" xmlns="http://www.w3.org/2000/svg" xmlns:xlink="http://www.w3.org/1999/xlink" xml:space="preserve" xmlns:serif="http://www.serif.com/" style="fill-rule:evenodd;clip-rule:evenodd;stroke-linejoin:round;stroke-miterlimit:2;">
    <g id="Artboard1" transform="matrix(1,0,0,1,-62.4377,-85.6567)">
        <rect x="62.438" y="85.657" width="1760.88" height="1040.98" style="fill:none;"/>
        <g transform="matrix(1,0,0,1,0.437672,0.656708)">
            <g>
                <path d="M545.543,121.298L742.705,1070L974.904,1071.49L975.189,907.759L761.866,907.341L761.069,836.85L973.334,201.731L1078.8,200.383L1079.81,849.2L1129.77,849.181L1130.08,907.531L1075.67,906.727L1076.5,1069.16L1154.48,1068.39L1354.85,122.96L545.543,121.298Z"/>
                <path d="M545.543,121.298L742.705,1070L974.904,1071.49L975.189,907.759L761.866,907.341L761.069,836.85L973.334,201.731L1078.8,200.383L1079.81,849.2L1129.77,849.181L1130.08,907.531L1075.67,906.727L1076.5,1069.16L1154.48,1068.39L1354.85,122.96L545.543,121.298ZM557.841,131.323L1342.52,132.935C1342.52,132.935 1146.36,1058.47 1146.36,1058.47C1146.36,1058.47 1086.44,1059.06 1086.44,1059.06C1086.44,1059.06 1085.72,916.877 1085.72,916.877C1085.72,916.877 1129.93,917.53 1129.93,917.53C1132.62,917.57 1135.21,916.526 1137.12,914.635C1139.03,912.744 1140.09,910.165 1140.08,907.478L1139.77,849.127C1139.74,843.624 1135.27,839.179 1129.77,839.181L1089.79,839.196C1089.79,839.196 1088.8,200.367 1088.8,200.367C1088.8,197.696 1087.72,195.137 1085.82,193.261C1083.92,191.386 1081.34,190.349 1078.67,190.384L973.206,191.732C968.952,191.786 965.198,194.526 963.85,198.561L751.584,833.68C751.231,834.738 751.057,835.847 751.069,836.963L751.867,907.454C751.929,912.925 756.376,917.33 761.847,917.341L965.171,917.739C965.171,917.739 964.921,1061.42 964.921,1061.42C964.921,1061.42 750.851,1060.06 750.851,1060.06C750.851,1060.06 557.841,131.323 557.841,131.323L557.841,131.323Z"/>
                <path d="M972.644,358.988L806.981,850.061L975.353,849.497L972.644,358.988Z"/>
                <path d="M972.644,358.988L806.981,850.061L975.353,849.497L972.644,358.988ZM962.975,418.934L965.298,839.531C965.298,839.531 820.923,840.014 820.923,840.014C820.923,840.014 962.975,418.934 962.975,418.934L962.975,418.934Z"/>
            </g>
            <g>
                <path d="M708.004,1047.22L387.932,396.298L281.201,396.184L708.004,1047.22Z"/>
                <path d="M708.004,1047.22L387.932,396.298L281.201,396.184L708.004,1047.22ZM627.535,906.237L299.727,406.204C299.727,406.204 381.702,406.291 381.702,406.291L627.535,906.237Z"/>
                <path d="M177.242,394.918L272.972,394.538L707.156,1047.31L177.242,394.918Z"/>
                <path d="M177.242,394.918L272.972,394.538L707.156,1047.31L177.242,394.918ZM198.181,404.835L267.627,404.559C292.209,441.517 463.464,698.99 582.604,878.111L198.181,404.835Z"/>
                <path d="M339.665,270.919L725.089,1043.56L436.857,270.792L339.665,270.919Z"/>
                <path d="M339.665,270.919L725.089,1043.56L436.857,270.792L339.665,270.919ZM355.818,280.897L429.917,280.801C429.917,280.801 649.665,869.962 649.665,869.962L355.818,280.897Z"/>
                <path d="M562.027,274.027L725.089,1043.56L446.086,272.685L562.027,274.027Z"/>
                <path d="M562.027,274.027L725.089,1043.56L446.086,272.685L562.027,274.027ZM553.904,283.933L685.41,904.548C613.948,707.1 486.866,355.976 460.4,282.851L553.904,283.933Z"/>
            </g>
            <g transform="matrix(-1.01911,0,0,1.02021,1909.6,-7.2636)">
                <path d="M708.004,1047.22L387.932,396.298L281.201,396.184L708.004,1047.22Z"/>
                <path d="M708.004,1047.22L387.932,396.298L281.201,396.184L708.004,1047.22ZM629.065,908.918L381.816,406.093C381.816,406.093 299.369,406.005 299.369,406.005L629.065,908.918Z"/>
                <path d="M177.242,394.918L272.972,394.538L707.156,1047.31L177.242,394.918Z"/>
                <path d="M177.242,394.918L272.972,394.538L707.156,1047.31L177.242,394.918ZM197.774,404.638L584.986,881.347C584.986,881.347 299.808,452.597 267.724,404.361L197.774,404.638Z"/>
                <path d="M339.665,270.919L725.089,1043.56L436.857,270.792L339.665,270.919Z"/>
                <path d="M339.665,270.919L725.089,1043.56L436.857,270.792L339.665,270.919ZM355.508,280.7L651.092,873.247C572.657,662.957 448.7,330.62 430.044,280.603L355.508,280.7Z"/>
                <path d="M562.027,274.027L725.089,1043.56L446.086,272.685L562.027,274.027Z"/>
                <path d="M562.027,274.027L725.089,1043.56L446.086,272.685L562.027,274.027ZM554.055,283.737L460.126,282.65C460.126,282.65 686.157,907.167 686.157,907.167L554.055,283.737Z"/>
            </g>
        </g>
    </g>
</svg>
